<?xml version="1.0" encoding="UTF-8"?>
<svg xmlns="http://www.w3.org/2000/svg" xmlns:xlink="http://www.w3.org/1999/xlink" viewBox="0 0 96 96" width="96px" height="96px">
<g id="surface25246617">
<path style="fill-rule:nonzero;fill:rgb(10.196079%,13.725491%,49.411765%);fill-opacity:1;stroke-width:25;stroke-linecap:butt;stroke-linejoin:round;stroke:rgb(94.509804%,76.862746%,5.882353%);stroke-opacity:1;stroke-miterlimit:10;" d="M 144.482815 107.028158 C 147.801785 113.89057 153.654075 119.342018 150.415274 124.937769 C 146.847782 131.086682 137.989178 127.639443 129.691753 128.962221 L 99.275878 146.110233 C 92.862409 152.587836 91.748069 163.506767 84.075957 163.506767 C 76.195407 163.506767 75.249421 151.978557 68.346925 145.581122 L 38.981255 129.026356 C 30.571594 127.51919 21.480502 131.182884 17.86491 124.937769 C 14.529906 119.173664 20.823122 113.569896 24.077957 106.426895 L 24.077957 66.679423 C 20.823122 59.536422 14.529906 53.932654 17.856893 48.160532 C 21.552654 41.787148 30.948386 45.755481 39.494333 43.991778 L 68.170555 27.829837 C 75.233387 21.472486 76.123256 9.735838 84.075957 9.735838 C 91.804187 9.735838 92.870426 20.831139 99.428198 27.284692 L 129.178676 44.055912 C 137.612387 45.619195 146.77563 41.88335 150.415274 48.160532 C 153.654075 53.764301 147.801785 59.215749 144.482815 66.070144 Z M 141.043593 104.206232 L 141.043593 68.900087 L 138.029262 60.947385 C 136.001003 60.851183 133.620003 60.971436 131.279087 61.235992 L 108.823929 74.247316 L 99.780938 86.57721 L 108.727727 98.802884 L 131.279087 111.870327 C 133.620003 112.134882 136.001003 112.255135 138.029262 112.158933 Z M 129.659686 48.280785 L 92.942577 27.581315 L 88.950193 26.923934 C 87.84387 28.639537 86.745563 30.772015 85.799577 32.944578 L 85.799577 59.023345 L 91.940473 72.964622 L 106.97204 71.337205 L 129.555467 58.253729 C 130.950396 56.353739 132.241107 54.34953 133.163043 52.545741 Z M 75.786549 27.485113 L 38.379993 48.577408 L 35.109123 52.545741 C 36.039076 54.34953 37.32177 56.353739 38.7167 58.253729 L 61.292109 71.329188 L 76.227475 72.956606 L 82.352337 59.071446 L 82.352337 32.952595 C 81.406351 30.780032 80.300027 28.647554 79.201721 26.923934 Z M 27.51718 68.146504 L 27.51718 104.951798 L 30.242904 112.150916 C 32.271164 112.247118 34.652164 112.134882 37.001097 111.86231 L 59.271867 98.963221 L 68.362959 86.561176 L 59.279884 74.143097 L 37.001097 61.235992 C 34.652164 60.963419 32.271164 60.851183 30.250921 60.947385 Z M 38.692649 124.921736 L 75.626212 145.733442 L 79.201721 146.326687 C 80.300027 144.611085 81.406351 142.470589 82.352337 140.29001 L 82.352337 114.123058 L 76.211441 100.173763 L 61.260042 101.793164 L 38.7167 114.844573 C 37.32177 116.744563 36.039076 118.748772 35.109123 120.560577 Z M 93.102914 145.63724 L 129.339012 125.218359 L 133.163043 120.560577 C 132.23309 118.748772 130.950396 116.744563 129.555467 114.844573 L 107.092293 101.833248 L 91.924439 100.173763 L 85.799577 114.050906 L 85.799577 140.298027 C 86.745563 142.470589 87.84387 144.603068 88.950193 146.318671 Z M 93.102914 145.63724 " transform="matrix(0.487256,0,0,0.487256,6.096,6.096)"/>
<path style=" stroke:none;fill-rule:nonzero;fill:rgb(10.196079%,13.725491%,49.411765%);fill-opacity:1;" d="M 76.496094 38.289062 C 78.113281 34.949219 80.964844 32.292969 79.386719 29.5625 C 77.613281 26.503906 73.148438 28.324219 69.039062 27.5625 L 54.542969 19.390625 C 51.347656 16.246094 50.828125 10.839844 47.0625 10.839844 C 43.1875 10.839844 42.753906 16.558594 39.3125 19.65625 L 25.339844 27.53125 C 21.175781 28.390625 16.597656 26.457031 14.796875 29.5625 C 13.175781 32.375 16.242188 35.105469 17.828125 38.585938 L 17.828125 57.953125 C 16.242188 61.433594 13.175781 64.164062 14.800781 66.972656 C 16.5625 70.015625 20.992188 68.230469 25.089844 68.964844 L 39.398438 77.03125 C 42.761719 80.148438 43.222656 85.765625 47.0625 85.765625 C 50.800781 85.765625 51.34375 80.445312 54.46875 77.289062 L 69.289062 68.933594 C 73.332031 68.289062 77.648438 69.96875 79.386719 66.972656 C 80.964844 64.246094 78.113281 61.589844 76.496094 58.246094 Z M 73.351562 60.746094 C 72.363281 60.792969 71.203125 60.734375 70.0625 60.605469 L 59.074219 54.238281 L 54.714844 48.28125 L 59.121094 42.273438 L 70.0625 35.933594 C 71.203125 35.804688 72.363281 35.746094 73.351562 35.792969 L 74.820312 39.667969 L 74.820312 56.871094 Z M 70.980469 31.699219 C 70.53125 32.578125 69.902344 33.554688 69.222656 34.480469 L 58.21875 40.855469 L 50.894531 41.648438 L 47.902344 34.855469 L 47.902344 22.148438 C 48.363281 21.089844 48.898438 20.050781 49.4375 19.214844 L 51.382812 19.535156 L 69.273438 29.621094 Z M 44.6875 19.214844 C 45.222656 20.054688 45.761719 21.09375 46.222656 22.152344 L 46.222656 34.878906 L 43.238281 41.644531 L 35.960938 40.851562 L 24.960938 34.480469 C 24.28125 33.554688 23.65625 32.578125 23.203125 31.699219 L 24.796875 29.765625 L 43.023438 19.488281 Z M 20.835938 35.792969 C 21.820312 35.746094 22.980469 35.800781 24.125 35.933594 L 34.980469 42.222656 L 39.40625 48.273438 L 34.976562 54.316406 L 24.125 60.601562 C 22.980469 60.734375 21.820312 60.789062 20.832031 60.742188 L 19.503906 57.234375 L 19.503906 39.300781 Z M 23.203125 64.839844 C 23.65625 63.957031 24.28125 62.980469 24.960938 62.054688 L 35.945312 55.695312 L 43.230469 54.90625 L 46.222656 61.703125 L 46.222656 74.453125 C 45.761719 75.515625 45.222656 76.558594 44.6875 77.394531 L 42.945312 77.105469 L 24.949219 66.964844 Z M 49.4375 77.390625 C 48.898438 76.554688 48.363281 75.515625 47.902344 74.457031 L 47.902344 61.667969 L 50.886719 54.90625 L 58.277344 55.714844 L 69.222656 62.054688 C 69.902344 62.980469 70.527344 63.957031 70.980469 64.839844 L 69.117188 67.109375 L 51.460938 77.058594 Z M 49.4375 77.390625 "/>
</g>
</svg>
